<svg version="1.0"
    xmlns="http://www.w3.org/2000/svg" width="300.000000pt" height="47.000000pt" viewBox="0 0 300.000000 47.000000" preserveAspectRatio="xMidYMid meet">

    <g transform="translate(0.000000,47.000000) scale(0.100000,-0.100000)" fill="#59bfff" stroke="none">
        <path d="M273 419 c-48 -24 -99 -77 -119 -125 -8 -19 -14 -59 -14 -90 0 -70
28 -123 80 -153 35 -20 52 -21 249 -21 180 0 215 2 237 16 35 24 54 65 54 120
0 40 -5 51 -38 84 -22 22 -56 43 -82 51 -30 9 -61 30 -95 64 -76 77 -183 98
-272 54z m204 -45 c16 -12 42 -39 58 -62 23 -31 37 -41 60 -41 32 -1 91 -33
112 -60 20 -25 16 -85 -8 -115 l-20 -26 -205 0 c-226 0 -251 5 -279 60 -17 34
-20 106 -4 147 13 36 66 92 104 109 44 21 147 14 182 -12z"/>
        <path d="M891 282 c-40 -21 -71 -73 -71 -117 0 -36 30 -88 63 -110 59 -38 147
-27 147 19 0 25 0 25 -36 10 -40 -17 -68 -11 -101 18 -76 70 16 197 108 148
16 -9 19 -7 19 14 0 40 -69 50 -129 18z"/>
        <path d="M1080 165 l0 -135 80 0 c73 0 80 2 80 20 0 18 -7 20 -60 20 l-60 0 0
40 0 40 50 0 c43 0 50 3 50 20 0 17 -7 20 -50 20 l-50 0 0 35 0 35 60 0 c53 0
60 2 60 20 0 18 -7 20 -80 20 l-80 0 0 -135z"/>
        <path d="M1300 165 c0 -128 1 -135 20 -135 18 0 20 7 20 59 l0 60 47 3 c36 2
49 7 51 21 3 14 -4 17 -47 17 l-51 0 0 35 0 35 60 0 c53 0 60 2 60 20 0 18 -7
20 -80 20 l-80 0 0 -135z"/>
        <path d="M1741 282 c-40 -21 -71 -73 -71 -117 0 -36 30 -88 63 -110 59 -38
147 -27 147 19 0 25 0 25 -35 10 -45 -18 -78 -10 -110 28 -29 34 -31 57 -10
97 20 39 66 57 111 43 29 -9 34 -8 34 7 0 43 -69 55 -129 23z"/>
        <path d="M1930 165 l0 -135 80 0 c73 0 80 2 80 20 0 18 -7 20 -60 20 l-60 0 0
115 c0 108 -1 115 -20 115 -19 0 -20 -7 -20 -135z"/>
        <path d="M2159 277 c-93 -62 -83 -191 17 -233 44 -18 68 -18 111 3 47 22 73
66 73 124 0 103 -114 164 -201 106z m132 -46 c51 -52 34 -128 -35 -151 -95
-31 -162 85 -87 152 42 38 83 37 122 -1z"/>
        <path d="M2410 196 c0 -89 3 -107 20 -129 26 -32 79 -44 121 -27 51 21 59 43
59 157 0 96 -1 103 -20 103 -19 0 -20 -7 -20 -91 0 -50 -4 -99 -10 -109 -14
-26 -57 -34 -86 -15 -23 15 -24 21 -24 115 0 93 -1 100 -20 100 -19 0 -20 -7
-20 -104z"/>
        <path d="M2670 164 l0 -137 59 6 c32 2 70 12 84 21 32 21 52 69 51 121 -2 78
-57 125 -149 125 l-45 0 0 -136z m133 65 c19 -23 23 -89 7 -119 -9 -17 -58
-40 -86 -40 -11 0 -14 22 -14 96 l0 97 38 -6 c20 -4 45 -16 55 -28z"/>
        <path d="M1510 165 c0 -12 13 -15 55 -15 42 0 55 3 55 15 0 12 -13 15 -55 15
-42 0 -55 -3 -55 -15z"/>
    </g>
</svg>